<?xml version="1.0" standalone="no"?>
<!DOCTYPE svg PUBLIC "-//W3C//DTD SVG 20010904//EN"
 "http://www.w3.org/TR/2001/REC-SVG-20010904/DTD/svg10.dtd">
<svg version="1.0" xmlns="http://www.w3.org/2000/svg"
 width="3000.000000pt" height="3889.000000pt" viewBox="0 0 3000.000000 3889.000000"
 preserveAspectRatio="xMidYMid meet">

<g transform="translate(0.000000,3889.000000) scale(0.100000,-0.100000)"
fill="#000000" stroke="none">
<path d="M0 19445 l0 -19445 15000 0 15000 0 0 19445 0 19445 -15000 0 -15000
0 0 -19445z m28320 18277 c122 -42 214 -97 301 -179 122 -115 203 -264 235
-430 21 -112 21 -26333 0 -26445 -63 -325 -309 -572 -633 -634 -113 -21
-26333 -21 -26446 0 -165 32 -292 100 -418 226 -90 89 -146 180 -191 310 l-33
95 0 13225 0 13225 33 95 c18 52 52 127 74 165 48 81 167 204 253 260 69 45
209 101 287 114 31 5 5653 8 13248 7 l13195 -1 95 -33z m-24174 -30803 c301
-29 580 -96 850 -204 790 -317 1403 -935 1717 -1730 87 -221 140 -421 184
-695 28 -180 26 -683 -5 -875 -71 -450 -228 -864 -466 -1225 -359 -544 -851
-943 -1448 -1176 -243 -95 -494 -157 -764 -189 -169 -21 -501 -23 -664 -6
-589 64 -1118 277 -1590 641 -123 95 -416 388 -510 510 -372 485 -585 1021
-641 1613 -15 168 -7 574 16 717 57 363 151 661 304 962 465 918 1367 1541
2393 1652 152 17 477 20 624 5z m7904 -2629 c30 -6 55 -12 57 -13 4 -5 -17
-69 -26 -79 -3 -3 -29 -2 -58 3 -101 19 -153 -29 -153 -141 l0 -50 85 0 85 0
0 -45 0 -45 -85 0 -85 0 0 -295 0 -295 -55 0 -55 0 0 295 0 295 -60 0 c-59 0
-60 0 -60 28 0 26 5 30 60 47 l60 18 0 55 c0 175 107 257 290 222z m-3530
-481 l0 -480 -42 3 c-41 3 -43 4 -51 46 l-8 43 -45 -39 c-54 -49 -114 -66
-199 -60 -162 13 -246 130 -246 341 0 118 17 184 64 253 40 61 106 96 188 102
80 6 140 -13 193 -59 l43 -38 -5 184 -5 185 57 0 56 0 0 -481z m12230 1 l0
-480 -44 0 c-47 0 -46 -1 -61 64 l-6 29 -37 -36 c-87 -84 -246 -90 -348 -12
-18 14 -47 54 -65 91 -29 59 -33 77 -37 174 -4 91 -1 119 17 180 39 129 131
200 256 200 70 0 136 -24 179 -66 l36 -35 0 186 0 185 55 0 55 0 0 -480z
m-6452 373 l-3 -48 -192 -3 -193 -2 0 -160 0 -160 180 0 180 0 0 -50 0 -50
-180 0 -180 0 -2 -187 -3 -188 -57 -3 -58 -3 0 451 0 450 256 0 255 0 -3 -47z
m4351 -311 c73 -196 137 -361 141 -365 8 -9 13 4 183 448 l103 270 87 3 87 3
0 -451 0 -450 -61 0 -62 0 5 391 c3 215 2 385 -2 378 -4 -8 -72 -184 -150
-391 l-144 -378 -46 0 -46 0 -144 383 c-79 210 -146 387 -149 394 -3 6 -5
-166 -3 -383 l3 -394 -50 0 -51 0 0 450 0 450 83 0 82 0 134 -358z m4631 308
l0 -50 -195 0 -195 0 0 -140 0 -140 185 0 185 0 0 -50 0 -50 -185 0 -185 0 0
-160 0 -160 195 0 195 0 0 -50 0 -50 -250 0 -250 0 0 450 0 450 250 0 250 0 0
-50z m-7950 -95 l0 -75 100 0 100 0 0 -45 0 -45 -100 0 -100 0 0 -192 c1 -219
7 -263 46 -297 25 -21 35 -23 91 -18 l63 5 0 -39 c0 -21 -5 -41 -11 -45 -6 -3
-39 -9 -74 -11 -112 -9 -184 32 -210 120 -11 38 -15 102 -15 264 l0 213 -45 0
c-43 0 -45 1 -45 28 0 24 7 32 48 51 42 20 50 28 59 64 23 86 30 97 63 97 l30
0 0 -75z m10390 0 l0 -74 98 -3 97 -3 0 -40 0 -40 -97 -3 -98 -3 0 -210 c0
-171 3 -217 16 -244 21 -44 60 -59 130 -51 l55 6 -3 -42 c-3 -39 -6 -43 -38
-51 -53 -14 -153 -3 -192 21 -69 43 -73 59 -76 330 l-3 242 -50 0 c-47 0 -49
1 -49 28 0 24 7 31 49 49 49 20 50 22 71 92 22 70 22 71 56 71 l34 0 0 -75z
m-16619 -80 c108 -37 170 -131 177 -271 l5 -84 -233 0 -233 0 6 -51 c8 -69 45
-129 99 -159 37 -22 54 -25 128 -23 56 1 105 8 143 22 l57 20 0 -49 0 -48 -47
-17 c-27 -9 -89 -19 -139 -22 -129 -8 -190 12 -265 86 -63 63 -86 116 -95 221
-16 177 73 340 207 378 52 15 140 14 190 -3z m754 4 c25 -7 56 -27 81 -54 l42
-43 28 30 c42 44 100 70 169 75 110 9 189 -30 226 -112 17 -36 19 -70 19 -308
l0 -268 -52 3 -53 3 -5 262 c-5 259 -5 262 -29 287 -73 78 -218 50 -264 -52
-19 -43 -22 -68 -25 -274 l-4 -228 -54 0 -54 0 0 254 c0 246 -1 254 -23 287
-62 92 -221 70 -269 -39 -19 -42 -22 -70 -26 -274 l-5 -228 -53 0 -54 0 0 340
0 340 44 0 c47 0 46 1 61 -64 l6 -29 38 37 c62 61 159 82 256 55z m1166 -6
c83 -27 151 -100 180 -193 31 -102 24 -239 -15 -322 -55 -117 -161 -175 -300
-166 -191 13 -294 149 -284 377 5 116 29 178 93 241 76 75 209 100 326 63z
m1567 -18 c64 -34 96 -70 131 -145 23 -49 26 -67 26 -170 0 -105 -2 -120 -28
-175 -52 -111 -130 -165 -253 -173 -183 -12 -309 96 -333 283 -9 76 0 177 20
228 52 130 151 190 304 184 66 -3 90 -8 133 -32z m727 25 c3 -6 3 -29 0 -53
l-7 -42 -67 0 c-58 0 -74 -4 -109 -29 -26 -18 -51 -47 -67 -79 -24 -50 -25
-56 -25 -264 l0 -213 -55 0 -55 0 0 340 0 340 44 0 43 0 7 -61 7 -60 39 44
c53 60 110 87 182 87 31 0 60 -5 63 -10z m3527 -30 c-6 -65 -8 -68 -56 -63
-82 10 -157 -32 -199 -111 -20 -38 -22 -57 -25 -258 l-4 -218 -54 0 -54 0 0
340 0 340 44 0 c49 0 56 -10 56 -82 0 -21 3 -38 8 -38 4 1 19 18 33 39 40 57
117 92 194 89 l60 -3 -3 -35z m524 12 c93 -48 144 -145 144 -274 l0 -68 -230
0 c-261 0 -242 7 -219 -85 35 -137 184 -188 367 -125 l52 18 0 -48 c0 -43 -3
-49 -27 -58 -102 -41 -251 -42 -340 -2 -61 26 -116 82 -147 149 -29 64 -31
261 -2 335 31 80 105 151 186 177 46 15 171 4 216 -19z m2510 -3 c37 -19 54
-36 74 -74 25 -49 25 -50 25 -315 l0 -265 -42 -3 -42 -3 -6 45 c-4 26 -10 46
-14 46 -4 0 -18 -12 -32 -26 -76 -82 -259 -99 -343 -33 -41 33 -66 90 -66 155
0 142 93 204 329 219 l113 8 -6 56 c-8 68 -27 98 -71 117 -57 24 -143 13 -246
-30 -12 -5 -20 3 -32 34 l-15 40 29 15 c95 50 263 56 345 14z m1480 3 c93 -48
144 -145 144 -274 l0 -68 -230 0 -230 0 0 -23 c0 -47 30 -121 62 -154 63 -65
185 -78 316 -33 l52 18 0 -48 c0 -43 -3 -49 -27 -58 -102 -41 -251 -42 -340
-3 -67 30 -124 92 -153 167 -30 81 -26 253 8 329 36 79 104 141 182 166 46 15
171 4 216 -19z m3139 1 c92 -48 142 -134 152 -263 l6 -80 -237 0 -236 0 6 -42
c22 -149 120 -214 285 -189 39 6 87 18 106 26 20 8 37 15 39 15 2 0 4 -22 4
-49 l0 -49 -52 -19 c-39 -13 -82 -18 -163 -18 -100 0 -115 2 -167 28 -120 59
-175 172 -166 341 8 156 78 268 191 310 59 22 179 16 232 -11z m750 13 c26 -8
63 -30 82 -48 56 -54 63 -98 63 -380 l0 -248 -55 0 -55 0 0 242 c0 224 -2 245
-21 284 -26 56 -82 80 -162 70 -69 -9 -111 -35 -139 -88 -22 -41 -23 -56 -26
-275 l-4 -233 -54 0 -54 0 0 340 0 340 44 0 45 0 7 -45 c3 -25 7 -45 9 -45 1
0 18 15 38 34 66 62 179 82 282 52z m1188 -11 c26 -9 47 -19 47 -21 0 -2 -7
-22 -16 -45 -14 -34 -20 -40 -38 -34 -95 29 -138 37 -189 33 -67 -5 -110 -32
-115 -72 -5 -44 21 -70 104 -107 158 -69 219 -103 240 -136 71 -107 13 -240
-121 -278 -74 -22 -228 -16 -292 10 -42 17 -43 18 -43 66 0 27 1 49 3 49 1 0
27 -9 57 -21 68 -26 193 -36 243 -20 42 14 77 53 77 87 0 36 -44 79 -112 108
-168 74 -201 92 -227 122 -54 60 -49 163 8 218 51 49 121 67 231 62 52 -3 116
-12 143 -21z m-11893 -232 c0 -216 2 -253 18 -283 25 -51 73 -72 149 -67 80 6
124 33 155 95 22 44 23 60 26 275 l4 227 54 0 54 0 0 -340 0 -340 -45 0 c-41
0 -45 3 -51 28 -14 65 -13 64 -49 28 -41 -41 -110 -66 -184 -66 -109 0 -182
37 -218 110 -22 43 -23 54 -23 312 l0 268 55 0 55 0 0 -247z m1232 0 c4 -268
7 -287 60 -326 54 -40 173 -31 226 17 53 48 57 65 62 316 l5 235 58 3 57 3 0
-341 0 -340 -50 0 c-45 0 -50 2 -50 23 0 12 -3 32 -6 44 -6 22 -8 22 -50 -16
-68 -60 -175 -77 -280 -46 -53 15 -90 48 -120 105 -17 31 -19 65 -22 303 l-4
267 55 0 55 0 4 -247z m7738 155 c18 -51 63 -182 100 -290 l68 -197 21 67 c11
37 56 166 100 287 l79 220 61 3 61 3 -15 -38 c-8 -21 -66 -173 -129 -338
l-113 -300 -65 -3 -64 -3 -124 328 c-68 180 -125 334 -128 341 -3 9 12 12 55
12 l60 0 33 -92z m-1250 -213 l0 -55 -150 0 -150 0 0 55 0 55 150 0 150 0 0
-55z m-4454 -238 c3 -8 -13 -63 -35 -123 -68 -188 -59 -174 -108 -174 -24 0
-43 2 -43 4 0 3 11 55 24 118 13 62 27 130 30 151 l7 37 60 0 c40 0 61 -4 65
-13z"/>
<path d="M3935 35046 c-37 -17 -80 -62 -94 -99 -8 -20 -11 -928 -11 -3013 0
-2512 2 -2990 14 -3017 16 -39 61 -82 99 -96 20 -8 928 -11 3013 -11 2512 0
2990 2 3017 14 39 16 82 61 96 99 15 40 15 5984 0 6024 -14 38 -57 83 -96 99
-48 21 -5993 20 -6038 0z m5195 -891 c65 -33 60 139 60 -2220 0 -1899 -2
-2149 -15 -2175 -33 -65 139 -60 -2220 -60 -2359 0 -2187 -5 -2220 60 -13 26
-15 270 -13 2189 3 2143 3 2159 23 2181 11 12 29 26 40 31 11 4 987 8 2168 8
1901 1 2151 -1 2177 -14z"/>
<path d="M5742 33269 c-44 -13 -108 -79 -121 -126 -17 -58 -15 -2362 1 -2417
19 -61 75 -112 140 -126 39 -8 368 -10 1223 -8 l1170 3 41 23 c53 31 91 91 99
156 3 28 5 571 3 1206 l-3 1155 -24 42 c-27 46 -60 74 -110 91 -43 15 -2368
15 -2419 1z"/>
<path d="M11965 35035 c-22 -13 -51 -41 -65 -61 l-25 -37 -5 -316 c-5 -332 -6
-337 -54 -389 -50 -55 -57 -57 -397 -62 l-316 -5 -40 -27 c-24 -16 -49 -44
-62 -70 -20 -42 -21 -59 -21 -341 0 -245 3 -304 15 -334 20 -48 41 -71 87 -94
34 -17 62 -19 325 -19 167 0 304 -4 325 -10 50 -14 97 -55 119 -105 17 -36 19
-70 19 -333 0 -242 -3 -299 -15 -330 -21 -49 -52 -81 -100 -103 -36 -17 -70
-19 -335 -19 -265 0 -299 -2 -336 -19 -47 -22 -80 -59 -95 -110 -6 -23 -9
-145 -7 -337 l3 -301 27 -40 c16 -24 44 -49 70 -62 44 -21 50 -21 789 -21 700
0 746 2 784 19 55 25 91 70 104 131 6 30 11 165 11 325 0 170 4 284 11 302 15
40 48 73 94 94 36 17 70 19 337 19 186 0 307 -4 325 -11 40 -15 82 -57 104
-104 17 -36 19 -69 19 -334 0 -280 1 -297 21 -339 13 -26 38 -54 62 -70 l41
-27 321 0 321 0 43 28 c27 18 50 44 62 70 18 40 19 77 19 776 0 533 3 744 12
773 16 54 77 113 132 127 32 8 387 11 1221 11 976 0 1181 2 1208 14 39 16 82
61 96 99 8 19 11 274 11 783 0 630 -2 759 -14 782 -19 36 -65 78 -99 91 -18 7
-142 11 -334 11 l-306 0 -43 -25 c-23 -14 -53 -42 -66 -62 -23 -37 -23 -45
-28 -353 -5 -339 -6 -345 -62 -397 -59 -56 3 -53 -1278 -53 -1043 0 -1185 -2
-1218 -15 -49 -21 -81 -52 -103 -100 -17 -36 -19 -69 -19 -326 0 -192 -4 -297
-12 -320 -18 -52 -48 -87 -93 -109 -38 -19 -62 -20 -343 -20 -188 0 -311 4
-329 11 -31 11 -78 53 -96 84 -9 15 -13 229 -17 785 -4 688 -7 768 -22 795
-22 40 -66 81 -101 94 -18 7 -142 11 -335 11 l-307 0 -40 -25z"/>
<path d="M18230 35042 c-19 -11 -48 -38 -65 -61 l-30 -43 -3 -296 c-4 -324 0
-350 49 -407 56 -63 78 -66 415 -63 l301 3 41 29 c79 54 82 70 82 412 0 338
-4 355 -76 410 l-37 29 -321 3 c-298 2 -324 1 -356 -16z"/>
<path d="M20025 35046 c-37 -17 -80 -62 -94 -99 -8 -20 -11 -928 -11 -3013 0
-2512 2 -2990 14 -3017 16 -39 61 -82 99 -96 20 -8 928 -11 3013 -11 2512 0
2990 2 3017 14 39 16 82 61 96 99 8 20 11 930 11 3018 0 2554 -2 2994 -14
3017 -16 31 -61 74 -93 91 -35 18 -5998 15 -6038 -3z m5222 -909 l28 -27 3
-2161 c2 -1918 0 -2163 -13 -2189 -33 -65 139 -60 -2220 -60 -2359 0 -2187 -5
-2220 60 -13 26 -15 276 -15 2175 0 1896 2 2149 15 2175 33 64 -141 59 2232
57 l2163 -2 27 -28z"/>
<path d="M21830 33267 c-55 -18 -106 -76 -120 -139 -8 -39 -10 -368 -8 -1223
l3 -1170 25 -43 c15 -27 42 -54 70 -70 l45 -27 1200 0 1200 0 45 27 c28 16 55
43 70 70 l25 43 3 1170 c2 835 0 1185 -8 1222 -14 64 -67 123 -126 141 -56 16
-2371 16 -2424 -1z"/>
<path d="M15555 32361 c-48 -22 -69 -44 -90 -94 -12 -30 -15 -88 -15 -334 0
-343 4 -359 81 -410 l43 -28 321 0 321 0 41 27 c25 16 49 44 62 71 21 44 22
55 19 354 l-3 310 -27 40 c-16 24 -44 49 -70 62 -42 20 -59 21 -344 21 -269 0
-303 -2 -339 -19z"/>
<path d="M17345 32361 c-55 -25 -91 -70 -104 -131 -7 -34 -11 -291 -11 -776 0
-788 3 -750 -57 -805 -60 -57 -19 -54 -843 -59 -553 -4 -771 -8 -785 -17 -28
-16 -60 -52 -79 -90 -14 -27 -16 -76 -16 -334 0 -282 1 -305 20 -344 22 -45
57 -75 109 -93 23 -8 128 -12 320 -12 315 0 335 -4 392 -66 45 -50 49 -78 49
-379 0 -190 4 -293 12 -316 18 -52 48 -87 94 -109 40 -20 57 -21 356 -18 l315
3 37 28 c72 56 70 46 76 397 6 358 8 367 89 425 l43 30 316 5 c341 5 347 6
399 62 50 53 53 77 53 390 0 276 1 294 21 335 12 24 37 56 57 71 l35 27 321 5
c346 5 352 6 402 62 56 61 54 24 54 833 0 648 -2 750 -15 782 -21 50 -42 72
-90 94 -38 17 -83 19 -785 19 -701 0 -747 -2 -785 -19z"/>
<path d="M12899 31480 c-44 -13 -79 -41 -104 -85 l-25 -42 0 -1204 c0 -1350
-6 -1240 73 -1303 l39 -31 317 -3 c316 -3 316 -3 361 21 34 18 52 37 72 76
l28 53 0 1187 c0 1132 -1 1188 -19 1226 -22 48 -54 79 -103 100 -31 12 -87 15
-325 14 -158 0 -300 -4 -314 -9z"/>
<path d="M14682 31479 c-44 -13 -108 -79 -121 -126 -7 -23 -11 -152 -11 -319
l0 -280 26 -52 c19 -39 38 -59 72 -80 l47 -27 305 0 305 0 47 27 c35 21 53 41
73 82 l26 53 -3 301 -3 300 -30 43 c-16 23 -50 53 -74 66 -43 23 -49 23 -335
22 -160 0 -306 -5 -324 -10z"/>
<path d="M11090 30579 c-35 -14 -69 -48 -91 -91 -18 -36 -19 -70 -19 -783 0
-648 2 -750 15 -782 20 -48 41 -71 87 -94 34 -17 62 -19 340 -19 348 0 364 3
415 81 l28 43 3 753 c2 722 2 756 -17 797 -10 24 -36 56 -57 72 l-37 29 -321
2 c-200 1 -330 -2 -346 -8z"/>
<path d="M14665 29681 c-50 -22 -91 -69 -105 -119 -14 -52 -14 -2353 1 -2405
5 -21 24 -53 40 -72 60 -68 30 -66 865 -63 l750 3 36 24 c19 13 46 40 59 59
l24 36 0 321 0 321 -27 41 c-16 24 -44 49 -70 62 -42 20 -59 21 -339 21 -265
0 -298 2 -334 19 -47 22 -89 64 -104 104 -8 19 -11 268 -11 760 0 473 -4 745
-10 769 -14 50 -55 97 -105 119 -36 17 -70 19 -335 19 -265 0 -299 -2 -335
-19z"/>
<path d="M18256 29690 c-38 -12 -95 -66 -112 -107 -12 -27 -14 -165 -14 -775
0 -699 2 -745 19 -783 22 -50 69 -91 119 -105 21 -6 155 -10 317 -10 251 0
284 2 320 19 47 22 89 64 104 104 8 19 11 272 11 774 0 740 0 747 -21 791 -13
26 -38 54 -62 70 l-40 27 -306 2 c-168 1 -319 -2 -335 -7z"/>
<path d="M3934 27891 c-23 -10 -54 -36 -70 -57 l-29 -37 -3 -318 c-3 -305 -2
-320 18 -359 11 -22 39 -52 62 -67 l42 -28 760 -5 761 -5 47 -27 c32 -19 52
-41 67 -71 20 -41 21 -59 21 -328 0 -167 4 -300 11 -322 12 -44 59 -101 103
-125 27 -15 68 -17 336 -17 303 0 305 0 347 24 46 27 74 60 91 110 8 23 12
128 12 322 0 179 4 298 11 316 15 40 57 82 104 104 38 18 81 19 780 19 696 0
742 2 780 19 23 10 53 32 67 49 44 52 50 110 46 412 -2 233 -6 280 -20 305
-20 37 -53 68 -95 89 -29 15 -216 16 -2120 16 -2018 0 -2089 -1 -2129 -19z"/>
<path d="M9292 27889 c-26 -13 -55 -39 -70 -62 l-27 -41 0 -321 0 -321 24 -36
c13 -19 40 -46 59 -59 35 -24 38 -24 351 -29 313 -5 316 -5 359 -30 24 -13 53
-40 65 -60 21 -34 22 -47 27 -350 5 -308 6 -316 28 -356 31 -53 91 -91 156
-99 28 -4 168 -5 311 -3 l260 3 47 27 c34 21 53 41 72 80 l26 52 0 292 c0 183
4 303 11 321 15 40 57 82 104 104 36 17 69 19 330 19 260 0 294 -2 330 -19 49
-22 91 -69 105 -119 8 -26 10 -401 8 -1228 l-3 -1190 -28 -43 c-18 -27 -44
-50 -70 -62 -41 -18 -93 -19 -1685 -19 -1595 0 -1644 1 -1680 19 -45 23 -77
56 -91 94 -7 18 -11 135 -11 311 0 311 -7 360 -57 408 -57 55 -77 58 -395 58
-263 0 -297 2 -333 19 -48 22 -79 54 -100 103 -12 31 -15 89 -15 330 0 331 -4
349 -76 404 l-37 29 -306 3 c-168 2 -320 0 -338 -3 -39 -7 -87 -46 -111 -89
-15 -27 -18 -74 -22 -346 -6 -357 -6 -356 -89 -415 l-43 -30 -316 -5 c-274 -4
-321 -7 -348 -22 -43 -23 -81 -71 -94 -116 -14 -53 -14 -1448 1 -1508 15 -57
74 -117 131 -133 30 -9 130 -11 334 -9 l291 3 40 27 c22 15 51 44 64 65 24 37
24 43 29 353 4 272 7 319 22 346 23 43 71 81 116 94 21 5 152 10 307 10 155 0
286 -5 307 -10 50 -14 97 -55 119 -105 17 -36 19 -70 19 -336 0 -290 0 -297
23 -340 13 -24 43 -57 66 -74 l43 -30 1661 -5 c1238 -4 1667 -8 1682 -17 33
-19 73 -66 89 -105 13 -31 16 -88 16 -330 0 -277 1 -294 21 -336 13 -26 38
-54 62 -70 l41 -27 321 0 321 0 36 24 c19 13 46 40 59 59 24 35 24 38 29 351
5 307 6 317 28 356 13 22 39 52 59 65 l36 25 316 5 c314 5 316 5 359 30 27 15
54 42 70 70 l27 45 5 315 c5 290 7 318 24 345 26 40 53 61 101 80 35 14 85 16
337 13 l296 -3 43 -30 c23 -16 53 -50 66 -74 23 -43 23 -50 23 -340 0 -266 2
-300 19 -336 22 -50 69 -91 119 -105 49 -13 565 -13 615 1 47 13 106 63 123
106 11 26 14 172 14 765 0 473 4 746 10 770 14 50 55 97 105 119 38 17 84 19
780 19 698 0 742 1 780 19 48 22 79 54 100 103 12 31 15 88 15 330 0 331 -4
349 -76 404 l-37 29 -1216 3 c-1170 2 -1217 1 -1251 -16 -19 -11 -48 -38 -65
-61 l-30 -43 -5 -316 c-5 -348 -6 -352 -70 -406 -53 -44 -84 -48 -401 -44
l-296 3 -41 28 c-23 15 -51 45 -62 67 -20 38 -20 56 -20 795 0 739 0 757 20
795 11 22 39 52 62 67 l41 28 316 5 c340 5 346 6 398 62 50 53 53 77 53 386 0
287 0 288 -25 338 -14 28 -40 59 -62 74 l-37 25 -2100 3 -2101 2 -43 -21z"/>
<path d="M17345 27893 c-41 -21 -74 -52 -93 -88 -14 -25 -18 -79 -22 -351 l-5
-321 -29 -37 c-55 -72 -73 -76 -406 -76 -328 0 -348 -4 -403 -69 -45 -54 -48
-84 -45 -403 l3 -296 30 -43 c58 -81 69 -84 410 -87 165 -1 310 -5 322 -7 26
-6 88 -58 106 -89 8 -15 14 -116 17 -336 6 -358 8 -367 89 -425 l43 -30 296
-3 c319 -3 349 0 403 45 65 55 69 75 69 403 0 333 4 351 76 406 l37 29 306 3
c168 2 320 0 338 -3 42 -8 89 -47 114 -97 19 -37 20 -56 17 -352 l-3 -313 -25
-36 c-13 -20 -43 -46 -65 -59 -39 -22 -49 -23 -356 -28 -313 -5 -316 -5 -351
-29 -19 -13 -46 -40 -59 -59 l-24 -36 0 -321 0 -321 28 -43 c18 -27 44 -50 70
-62 40 -18 77 -19 790 -19 606 0 754 3 780 14 43 17 93 76 106 123 7 22 11
156 11 323 0 328 4 346 81 397 l42 28 316 5 c340 5 346 6 398 62 50 53 53 77
53 390 0 276 -1 294 -21 335 -12 24 -37 56 -57 71 l-35 27 -321 5 c-360 6
-356 5 -420 83 l-31 39 -5 766 c-5 744 -6 768 -25 801 -11 19 -37 48 -58 65
l-39 31 -301 3 c-166 2 -317 0 -335 -3 -42 -8 -100 -59 -123 -110 -17 -36 -19
-71 -19 -334 0 -280 -1 -297 -21 -339 -13 -26 -38 -54 -62 -70 l-41 -27 -321
0 -321 0 -36 24 c-19 13 -46 40 -59 59 -24 35 -24 38 -29 351 -4 269 -7 320
-22 346 -22 40 -66 81 -101 94 -18 7 -140 11 -330 11 -256 -1 -307 -3 -332
-17z"/>
<path d="M20925 27896 c-45 -20 -91 -73 -104 -119 -9 -30 -11 -249 -9 -784 l3
-741 30 -43 c58 -81 69 -84 410 -87 165 -1 310 -5 322 -7 26 -6 88 -58 106
-89 8 -15 14 -116 17 -336 6 -358 8 -367 89 -425 l43 -30 296 -3 c194 -2 310
1 334 8 50 14 97 56 119 105 17 38 19 84 19 778 0 643 -2 742 -15 775 -21 49
-52 81 -100 103 -36 17 -70 19 -333 19 -318 0 -338 3 -395 58 -50 48 -57 97
-57 408 0 176 -4 293 -11 311 -15 40 -48 73 -94 94 -36 17 -69 19 -340 18
-226 0 -307 -3 -330 -13z"/>
<path d="M22703 27891 c-26 -12 -52 -35 -70 -62 l-28 -43 0 -321 0 -321 27
-41 c16 -24 44 -49 70 -62 42 -20 59 -21 343 -21 284 0 301 1 343 21 26 13 54
38 70 62 l27 40 3 301 c2 192 -1 314 -7 337 -15 51 -48 88 -95 110 -37 17 -70
19 -341 19 -273 0 -304 -2 -342 -19z"/>
<path d="M24500 27894 c-45 -20 -68 -41 -91 -86 -17 -34 -19 -63 -19 -343 0
-348 2 -360 82 -412 l42 -28 321 0 321 0 38 25 c22 15 47 45 62 76 l25 51 -3
305 -3 305 -27 40 c-16 24 -44 49 -70 62 -42 20 -59 21 -344 21 -244 -1 -305
-4 -334 -16z"/>
<path d="M25395 27001 c-49 -22 -91 -69 -105 -119 -7 -24 -10 -140 -8 -334 l3
-296 30 -43 c17 -23 48 -52 70 -63 38 -20 55 -21 335 -21 162 0 307 3 322 8
38 10 98 65 114 104 11 25 14 104 14 339 0 296 -1 308 -22 345 -12 21 -39 51
-61 66 l-40 28 -306 3 c-281 2 -309 1 -346 -17z"/>
<path d="M3925 26101 c-40 -24 -71 -60 -84 -94 -8 -19 -11 -271 -11 -777 0
-506 3 -758 11 -777 14 -38 46 -71 91 -94 34 -17 62 -19 339 -19 345 0 361 3
415 82 l29 41 5 316 c5 340 6 346 62 398 53 50 77 53 381 53 191 0 295 4 318
12 52 18 87 48 109 93 19 39 20 62 20 343 0 329 -2 343 -56 394 -16 15 -42 32
-57 37 -19 8 -275 11 -785 11 -721 0 -758 -1 -787 -19z"/>
<path d="M8395 26101 c-40 -24 -71 -60 -84 -94 -7 -18 -11 -141 -11 -333 0
-347 2 -359 82 -411 l42 -28 751 -3 752 -2 53 27 c40 21 59 39 77 73 24 45 24
45 21 361 l-3 317 -31 39 c-62 78 -7 73 -859 73 -724 0 -761 -1 -790 -19z"/>
<path d="M23583 26095 c-29 -18 -49 -41 -67 -77 l-26 -52 0 -280 c0 -163 4
-297 10 -318 14 -50 55 -97 105 -119 36 -17 70 -19 336 -19 291 0 297 0 340
23 24 13 58 43 74 66 l30 43 3 276 c2 153 1 296 -3 318 -8 55 -50 117 -95 143
-36 20 -52 21 -351 21 l-314 0 -42 -25z"/>
<path d="M16455 25211 c-48 -22 -79 -54 -100 -103 -12 -31 -15 -88 -15 -326 0
-287 0 -288 25 -338 14 -28 40 -60 62 -74 l36 -25 313 -3 c296 -3 315 -2 352
17 50 25 89 72 97 114 3 18 5 170 3 338 l-3 306 -27 35 c-15 20 -47 45 -71 57
-41 20 -59 21 -338 21 -264 0 -298 -2 -334 -19z"/>
<path d="M17355 24321 c-48 -22 -79 -51 -102 -94 -16 -29 -18 -65 -18 -337 0
-334 0 -337 63 -395 57 -53 82 -56 404 -53 l296 3 43 30 c23 17 53 50 66 74
23 43 23 50 23 341 0 291 0 298 -23 341 -13 24 -43 58 -66 74 l-43 30 -301 3
c-278 2 -305 1 -342 -17z"/>
<path d="M20046 24325 c-21 -7 -52 -26 -68 -42 -56 -52 -58 -66 -58 -379 0
-197 -4 -299 -12 -328 -16 -52 -72 -108 -124 -124 -31 -9 -225 -12 -775 -12
-699 0 -736 -1 -776 -19 -26 -12 -52 -35 -70 -62 l-28 -43 0 -321 0 -321 24
-36 c13 -19 40 -46 59 -59 35 -24 38 -24 351 -29 307 -5 317 -6 356 -28 22
-13 52 -39 65 -59 l25 -37 0 -771 0 -771 -25 -38 c-15 -22 -45 -47 -76 -62
l-50 -24 -750 2 -750 3 -42 28 c-23 15 -52 46 -64 70 l-23 42 -5 760 c-6 855
0 798 -82 853 l-42 27 -751 3 -752 2 -53 -27 c-40 -21 -59 -39 -77 -72 -23
-43 -23 -49 -23 -348 0 -279 2 -307 19 -341 23 -45 56 -77 94 -91 18 -7 131
-11 296 -11 148 0 292 -5 321 -10 66 -12 116 -50 141 -104 18 -39 19 -80 19
-782 l0 -740 25 -50 c14 -28 40 -59 62 -74 l37 -25 767 -5 767 -5 43 -30 c23
-16 53 -50 66 -74 l23 -44 0 -1634 c0 -1452 -2 -1638 -15 -1671 -21 -49 -52
-81 -100 -103 -36 -17 -70 -19 -335 -19 -264 0 -299 -2 -335 -19 -55 -25 -91
-70 -104 -131 -14 -67 -14 -523 0 -590 13 -61 49 -106 104 -131 38 -17 84 -19
785 -19 702 0 747 2 785 19 48 22 69 44 90 94 12 30 15 87 15 319 0 164 4 299
10 320 14 50 55 97 105 119 36 17 70 19 335 19 265 0 299 -2 335 -19 50 -22
91 -69 105 -119 6 -21 10 -158 10 -325 0 -263 2 -291 19 -325 23 -46 46 -67
94 -87 30 -12 89 -15 334 -15 282 0 299 1 341 21 26 13 54 38 70 62 l27 40 5
316 c5 337 5 337 59 394 50 55 67 57 390 57 335 0 352 -4 407 -76 l29 -37 3
-766 c2 -554 -1 -774 -9 -793 -16 -40 -81 -95 -126 -107 -26 -8 -549 -11
-1666 -11 -1613 0 -1628 0 -1667 -20 -22 -11 -52 -39 -67 -62 l-28 -41 -3
-296 c-2 -163 0 -311 3 -329 8 -42 59 -100 110 -123 38 -18 144 -19 2569 -19
l2530 0 44 21 c26 13 54 38 70 62 l27 40 3 301 c2 192 -1 314 -7 337 -15 49
-45 86 -92 109 -35 19 -59 20 -326 20 -167 0 -304 4 -325 10 -50 14 -97 55
-119 105 -17 38 -19 84 -19 784 0 739 0 745 21 789 13 26 38 54 62 70 l40 27
316 5 c350 6 348 5 409 74 17 20 34 50 37 68 3 18 5 369 3 779 l-3 745 -25 37
c-13 20 -43 46 -65 59 -39 22 -49 23 -356 28 -313 5 -316 5 -351 29 -19 13
-46 40 -59 59 l-24 36 -3 750 c-3 835 -5 805 63 865 19 16 51 35 72 40 22 7
156 11 323 11 256 0 289 2 326 19 47 22 80 59 95 110 6 23 9 145 7 337 l-3
301 -27 40 c-16 24 -44 49 -70 62 l-44 21 -1635 0 c-1564 0 -1636 1 -1674 19
-53 24 -93 65 -106 110 -6 23 -9 146 -7 343 l3 306 31 39 c64 78 60 77 420 83
l321 5 35 27 c20 15 45 47 57 71 20 41 21 59 21 338 0 327 4 347 69 402 54 45
84 49 402 45 l296 -3 41 -27 c76 -51 76 -53 82 -408 5 -336 5 -336 59 -393 52
-57 54 -57 392 -57 301 0 313 1 350 22 21 12 51 39 66 61 l28 40 5 767 5 766
27 42 c51 76 53 76 408 82 353 6 351 5 414 83 l31 39 3 314 c3 296 2 315 -17
352 -25 49 -71 88 -119 102 -25 6 -571 10 -1652 10 -1345 -1 -1621 -3 -1654
-15z m1550 -4480 c32 -16 59 -39 77 -67 l27 -42 0 -1203 c0 -1000 -2 -1209
-14 -1236 -16 -39 -61 -82 -99 -96 -19 -8 -405 -11 -1231 -11 l-1202 0 -42 27
c-28 18 -51 45 -67 77 l-25 50 0 1175 c0 797 4 1188 11 1214 13 47 77 113 121
126 20 5 502 10 1214 10 l1180 1 50 -25z"/>
<path d="M20025 18953 c-44 -23 -65 -44 -86 -85 -17 -34 -19 -62 -19 -340 0
-348 3 -364 81 -415 l42 -28 301 -3 c337 -3 360 0 415 63 49 57 53 84 49 406
l-3 296 -28 42 c-52 78 -67 81 -417 80 -259 0 -310 -2 -335 -16z"/>
<path d="M24516 24325 c-47 -17 -94 -59 -112 -102 -18 -41 -20 -615 -3 -660
15 -40 57 -82 104 -104 38 -18 81 -19 776 -19 l735 0 50 25 c32 16 59 39 77
67 l27 42 0 316 0 316 -27 42 c-18 28 -45 51 -77 67 l-50 25 -730 0 c-595 -1
-738 -3 -770 -15z"/>
<path d="M3929 23420 c-47 -25 -87 -72 -94 -113 -3 -18 -4 -773 -3 -1678 l3
-1646 29 -37 c55 -72 72 -76 410 -76 279 0 302 1 341 20 48 23 79 61 95 116 8
29 10 477 8 1675 l-3 1636 -29 41 c-16 23 -46 50 -70 62 -40 19 -60 20 -347
20 -280 -1 -307 -2 -340 -20z"/>
<path d="M12875 23423 c-36 -19 -73 -51 -88 -78 -8 -13 -14 -123 -17 -335 -6
-358 -8 -367 -89 -425 l-43 -30 -316 -5 c-341 -5 -347 -6 -399 -62 -50 -53
-53 -77 -53 -390 0 -331 -4 -349 -76 -404 l-37 -29 -316 -5 c-223 -4 -325 -10
-346 -19 -41 -17 -73 -49 -96 -93 -17 -34 -19 -62 -19 -337 0 -187 4 -310 11
-328 15 -40 57 -82 104 -104 38 -18 81 -19 780 -19 701 0 742 -1 781 -19 53
-24 91 -74 104 -137 7 -33 10 -424 8 -1214 -3 -1159 -3 -1165 -24 -1205 -11
-22 -40 -53 -63 -70 l-43 -30 -316 -5 c-348 -5 -352 -6 -406 -70 -44 -53 -48
-84 -44 -400 3 -288 4 -296 26 -332 13 -20 40 -47 60 -60 l37 -23 760 -5 c746
-5 761 -5 800 -26 22 -11 54 -40 70 -63 l30 -43 5 -316 c5 -333 6 -338 54
-390 50 -55 57 -57 397 -62 l316 -5 42 -28 c27 -18 50 -44 62 -70 18 -40 19
-84 19 -1222 0 -780 4 -1193 10 -1217 14 -50 55 -97 105 -119 36 -17 70 -19
335 -19 265 0 299 2 335 19 50 22 91 69 105 119 6 21 10 158 10 325 0 246 2
293 16 320 23 45 44 66 86 88 34 17 63 19 343 19 348 0 360 -2 412 -82 l28
-42 5 -765 5 -766 23 -38 c13 -20 43 -48 66 -62 l43 -25 758 0 757 0 39 22
c21 12 51 39 66 61 l28 40 3 296 c4 317 0 348 -44 401 -54 64 -58 65 -406 70
l-316 5 -43 30 c-23 17 -52 48 -63 70 -21 39 -21 54 -26 800 l-5 760 -23 37
c-14 23 -42 46 -74 62 l-52 26 -740 0 c-698 0 -743 2 -781 19 -48 22 -69 44
-90 94 -13 32 -15 133 -15 775 l0 738 -26 52 c-19 39 -38 59 -72 80 l-47 27
-315 5 c-220 3 -321 9 -336 17 -35 20 -82 80 -94 120 -8 25 -10 135 -8 330 l3
291 30 43 c17 23 50 53 74 66 l44 23 739 0 c644 0 743 -2 776 -15 49 -21 81
-52 103 -100 18 -38 19 -82 19 -780 0 -696 2 -742 19 -780 22 -49 69 -91 119
-105 24 -8 138 -10 333 -8 l296 3 40 28 c22 15 49 45 61 66 l22 39 0 1203 c0
1350 6 1240 -73 1303 l-39 31 -1661 5 c-1822 5 -1687 1 -1744 62 -57 60 -53
-85 -53 2177 l0 2079 -28 53 c-20 39 -38 58 -71 76 -43 23 -49 23 -350 23
-259 -1 -311 -3 -336 -17z"/>
<path d="M14665 23426 c-41 -18 -92 -77 -104 -123 -14 -50 -14 -566 -1 -615
14 -50 55 -97 105 -119 36 -17 70 -19 335 -19 265 0 299 2 335 19 50 22 91 69
105 119 13 49 13 565 -1 615 -13 47 -63 106 -106 123 -46 20 -624 19 -668 0z"/>
<path d="M9305 22531 c-49 -22 -91 -69 -105 -119 -7 -24 -10 -140 -8 -334 l3
-296 30 -43 c56 -79 58 -79 410 -79 348 0 351 1 409 73 l31 39 3 315 c3 300 2
317 -18 357 -22 46 -57 76 -109 94 -23 8 -127 12 -320 12 -256 0 -290 -2 -326
-19z"/>
<path d="M23605 22531 c-50 -22 -91 -69 -105 -119 -6 -21 -10 -155 -10 -318
l0 -280 26 -52 c16 -32 39 -60 62 -74 36 -22 46 -23 352 -28 306 -5 316 -6
355 -28 45 -26 81 -72 95 -123 6 -19 10 -163 10 -320 0 -280 0 -287 23 -330
18 -33 37 -51 76 -71 l53 -28 293 0 c183 0 304 -4 322 -11 40 -15 82 -57 104
-104 18 -38 19 -81 19 -780 0 -697 -2 -742 -19 -780 -22 -50 -69 -91 -119
-105 -24 -6 -296 -10 -769 -10 -492 0 -741 -3 -760 -11 -40 -15 -82 -57 -104
-104 -17 -36 -19 -69 -19 -330 0 -260 2 -294 19 -330 22 -49 69 -91 119 -105
26 -8 401 -10 1228 -8 l1190 3 42 28 c23 15 51 45 62 67 20 39 20 52 20 2136
l0 2097 -25 43 c-14 23 -42 53 -62 66 l-38 23 -1200 2 c-1148 3 -1202 2 -1240
-16z"/>
<path d="M7560 21651 c-57 -12 -98 -39 -128 -83 l-27 -42 -3 -740 c-2 -517 0
-752 8 -779 14 -47 65 -106 107 -123 27 -12 318 -14 1672 -14 1134 0 1648 3
1668 11 40 15 82 57 104 104 17 36 19 69 19 320 0 162 -4 296 -10 317 -13 45
-51 93 -94 116 -29 16 -123 17 -1242 22 l-1211 5 -39 27 c-79 55 -78 54 -84
408 -5 336 -5 336 -59 393 -56 61 -60 62 -366 64 -154 1 -296 -2 -315 -6z"/>
<path d="M14708 21651 c-57 -12 -106 -50 -133 -105 l-25 -50 0 -725 c0 -476 4
-739 11 -764 13 -47 63 -106 106 -123 47 -20 619 -20 666 0 43 17 93 76 106
123 7 25 11 288 11 764 l0 725 -26 52 c-19 39 -38 59 -72 80 l-47 27 -280 2
c-154 1 -297 -2 -317 -6z"/>
<path d="M5725 20741 c-51 -23 -91 -70 -105 -122 -7 -26 -10 -143 -8 -327 3
-322 4 -323 81 -386 l39 -31 301 -3 c166 -2 317 0 335 3 42 8 100 59 123 110
17 36 19 71 19 330 0 261 -2 294 -19 330 -22 48 -54 79 -103 100 -31 12 -88
15 -330 15 -263 0 -297 -2 -333 -19z"/>
<path d="M11095 19851 c-47 -22 -89 -64 -104 -104 -8 -19 -11 -272 -11 -774 0
-740 0 -747 21 -791 13 -26 38 -54 62 -70 l41 -27 321 0 321 0 36 24 c19 13
46 40 59 59 l24 36 3 750 c3 835 5 805 -63 865 -19 16 -51 35 -72 40 -23 7
-153 11 -318 11 -251 0 -284 -2 -320 -19z"/>
<path d="M3935 18956 c-37 -17 -80 -62 -94 -99 -16 -41 -15 -6000 0 -6030 17
-32 60 -77 91 -93 40 -21 5992 -21 6041 0 39 16 82 61 96 99 15 40 15 5984 0
6024 -14 38 -57 83 -96 99 -48 21 -5993 20 -6038 0z m5195 -891 c65 -33 60
139 60 -2220 0 -2359 5 -2187 -60 -2220 -26 -13 -277 -15 -2177 -15 -2129 0
-2148 0 -2181 20 -18 11 -37 32 -42 46 -6 16 -10 801 -10 2170 0 1895 2 2148
15 2174 33 64 -139 59 2218 60 1901 0 2151 -2 2177 -15z"/>
<path d="M5746 17178 c-52 -14 -109 -73 -125 -129 -9 -34 -11 -321 -9 -1229
l3 -1185 24 -38 c13 -21 42 -50 64 -65 l41 -27 1195 -3 1195 -2 53 26 c40 19
60 37 81 72 l27 47 0 1200 0 1200 -25 43 c-15 27 -42 54 -70 70 l-45 27 -1185
2 c-790 1 -1198 -2 -1224 -9z"/>
<path d="M11145 17185 c-5 -2 -22 -6 -37 -9 -37 -8 -85 -51 -108 -97 -20 -38
-20 -73 -20 -2126 0 -2018 1 -2089 19 -2129 10 -23 36 -54 57 -70 l37 -29 318
-3 c305 -3 320 -2 359 18 22 11 52 39 67 62 l28 42 5 760 5 761 25 43 c13 24
40 53 60 65 l35 22 767 5 766 5 43 30 c23 17 53 50 66 74 l23 44 0 739 c0 644
-2 743 -15 776 -20 47 -50 79 -97 103 -36 18 -70 19 -780 19 -701 0 -745 1
-783 19 -48 22 -79 54 -100 103 -12 31 -15 88 -15 328 0 316 -3 336 -58 393
-48 50 -98 57 -391 56 -146 0 -270 -2 -276 -4z"/>
<path d="M24511 16279 c-44 -17 -81 -51 -101 -89 -19 -37 -20 -60 -20 -345 0
-280 2 -309 19 -343 23 -46 46 -67 94 -87 30 -12 87 -15 319 -15 164 0 299 -4
320 -10 50 -14 97 -55 119 -105 17 -36 19 -70 19 -336 0 -290 0 -297 23 -340
13 -24 43 -57 66 -74 l43 -30 288 -3 c190 -2 303 1 330 8 53 14 117 72 130
119 8 24 10 282 8 792 l-3 756 -29 37 c-16 21 -47 47 -70 57 -39 18 -79 19
-786 18 -442 0 -755 -4 -769 -10z"/>
<path d="M23622 15389 c-46 -14 -109 -80 -122 -129 -7 -27 -10 -142 -8 -335
l3 -293 30 -43 c17 -23 48 -52 70 -63 38 -20 55 -21 345 -21 l305 0 45 27 c28
16 55 43 70 70 l25 43 0 305 c0 290 -1 307 -21 345 -11 22 -40 54 -63 70 l-43
30 -301 2 c-173 1 -316 -2 -335 -8z"/>
<path d="M24490 14481 c-19 -10 -48 -35 -65 -55 l-30 -38 -5 -321 c-5 -347 -6
-352 -62 -404 -53 -50 -77 -53 -390 -53 -263 0 -297 -2 -333 -19 -50 -22 -91
-69 -105 -119 -6 -21 -10 -155 -10 -318 0 -278 0 -280 25 -330 16 -32 39 -59
67 -77 l42 -27 1203 0 c1000 0 1209 2 1236 14 39 16 82 61 96 99 7 18 11 142
11 333 0 347 -2 359 -82 411 l-41 28 -316 5 c-340 5 -347 7 -397 62 -48 52
-49 57 -54 389 l-5 316 -28 42 c-52 78 -67 81 -417 81 -279 0 -308 -2 -340
-19z"/>
<path d="M2762 6259 c-131 -22 -256 -119 -319 -247 l-38 -76 0 -2045 0 -2046
32 -68 c64 -135 191 -233 333 -256 89 -15 1951 -15 2039 0 141 22 263 115 328
247 l38 76 3 2015 c3 2253 8 2081 -68 2199 -68 106 -183 182 -306 202 -74 12
-1968 11 -2042 -1z m1441 -260 c47 -13 115 -72 134 -116 30 -73 9 -177 -49
-230 -55 -52 -67 -53 -503 -53 -436 0 -448 1 -503 53 -66 61 -83 175 -37 253
25 43 72 79 123 94 41 13 790 12 835 -1z m70 -695 l577 -7 0 -1418 0 -1419
-1070 0 -1070 0 0 1431 0 1432 493 -7 c270 -3 752 -9 1070 -12z m-368 -3058
c224 -110 219 -416 -9 -522 -180 -84 -398 63 -397 266 1 215 214 349 406 256z"/>
<path d="M8155 3916 c-39 -17 -79 -64 -97 -113 -8 -23 -13 -81 -13 -143 0 -93
3 -111 25 -155 35 -68 91 -98 171 -92 71 6 111 27 141 74 20 33 23 53 26 153
5 133 -6 186 -48 233 -46 52 -139 72 -205 43z"/>
<path d="M20374 3916 c-71 -31 -108 -118 -109 -251 0 -182 77 -272 218 -251
109 17 151 83 152 241 0 118 -16 182 -57 224 -48 49 -139 65 -204 37z"/>
<path d="M8940 3923 c-55 -21 -99 -79 -115 -150 l-7 -33 171 0 171 0 0 33 c0
49 -39 118 -80 139 -33 17 -107 23 -140 11z"/>
<path d="M10837 3916 c-21 -8 -48 -22 -59 -33 -81 -71 -88 -310 -13 -409 51
-66 171 -83 250 -34 76 47 114 200 81 328 -19 75 -37 105 -80 132 -43 26 -130
34 -179 16z"/>
<path d="M12367 3916 c-48 -18 -74 -40 -100 -91 -18 -34 -22 -57 -22 -150 0
-98 3 -116 25 -160 40 -81 110 -115 207 -100 61 9 125 69 143 135 16 57 17
182 1 238 -31 110 -144 167 -254 128z"/>
<path d="M17154 3912 c-46 -22 -78 -67 -92 -130 l-10 -42 175 0 174 0 -7 38
c-9 53 -35 103 -66 125 -39 29 -122 33 -174 9z"/>
<path d="M19667 3646 c-83 -18 -122 -58 -122 -126 0 -70 32 -101 110 -108 111
-9 185 44 205 148 19 102 20 100 -62 99 -40 0 -99 -6 -131 -13z"/>
<path d="M21144 3912 c-46 -22 -78 -67 -92 -130 l-10 -42 175 0 174 0 -7 38
c-9 52 -36 102 -67 126 -38 28 -121 32 -173 8z"/>
<path d="M24295 3916 c-54 -24 -105 -101 -105 -156 0 -19 6 -20 171 -20 l172
0 -7 42 c-9 52 -32 94 -68 121 -34 26 -121 33 -163 13z"/>
</g>
</svg>
