<svg id="svg" version="1.1" xmlns="http://www.w3.org/2000/svg" xmlns:xlink="http://www.w3.org/1999/xlink" width="400" height="400" viewBox="0, 0, 400,400"><g id="svgg"><path id="path0" d="M177.637 6.760 C 175.648 8.100,175.677 7.858,175.672 23.450 C 175.666 40.970,175.674 41.000,180.800 41.000 L 182.667 41.000 182.667 47.375 L 182.667 53.749 184.583 53.539 C 191.531 52.776,212.541 52.997,218.417 53.894 L 219.667 54.085 219.667 47.543 L 219.667 41.000 221.533 41.000 C 223.911 41.000,225.464 40.267,226.151 38.819 C 227.059 36.906,226.771 8.707,225.833 7.655 C 224.344 5.986,224.558 6.000,200.893 6.000 L 178.765 6.000 177.637 6.760 M82.500 60.720 C 80.854 61.164,56.288 81.264,55.549 82.770 C 54.530 84.847,54.908 85.644,59.687 91.500 C 66.284 99.584,67.401 100.277,70.642 98.301 L 71.784 97.605 72.309 98.275 C 72.597 98.643,73.583 99.929,74.500 101.131 C 76.567 103.842,76.150 103.906,79.929 100.293 C 84.045 96.358,89.830 91.554,94.736 87.997 C 99.355 84.648,99.191 85.226,96.454 81.945 L 94.242 79.293 95.325 78.175 C 97.845 75.576,97.445 74.547,90.881 66.726 C 85.610 60.446,85.036 60.034,82.500 60.720 M318.167 60.579 C 317.800 60.642,317.175 60.761,316.778 60.846 C 316.161 60.976,308.045 70.319,306.227 72.991 C 305.158 74.563,305.733 77.641,307.302 78.740 C 307.907 79.164,307.811 79.361,305.470 82.484 C 302.467 86.492,302.400 85.821,306.079 88.550 C 310.298 91.679,316.262 96.661,320.034 100.210 C 321.763 101.836,323.562 103.506,324.032 103.922 L 324.887 104.677 327.663 101.172 C 330.747 97.276,330.521 97.437,331.667 98.333 C 332.504 98.988,334.986 99.240,336.160 98.790 C 336.706 98.580,344.542 89.195,346.153 86.822 C 347.033 85.525,347.230 83.982,346.695 82.574 C 346.448 81.924,326.092 65.103,321.352 61.632 C 320.062 60.688,319.200 60.403,318.167 60.579 M190.414 65.352 C 111.995 69.810,46.999 130.115,37.028 207.667 C 22.801 318.318,118.372 410.142,228.333 391.471 C 296.801 379.846,351.391 324.550,362.318 255.753 C 378.850 151.672,295.520 59.375,190.414 65.352 M210.500 90.344 C 314.037 99.065,372.690 212.144,319.661 300.800 C 272.367 379.868,163.361 392.382,99.630 326.061 C 17.766 240.868,72.478 99.135,190.667 90.230 C 194.219 89.962,206.828 90.035,210.500 90.344 M199.918 160.860 L 199.833 219.473 198.833 219.679 C 191.978 221.093,188.873 229.200,192.863 235.263 C 193.522 236.264,193.919 237.200,193.781 237.429 C 193.648 237.652,177.967 258.883,158.933 284.611 C 139.900 310.338,124.408 331.518,124.507 331.678 C 125.753 333.694,141.231 342.608,149.891 346.296 C 216.736 374.763,294.247 341.570,319.098 273.833 C 349.039 192.225,291.943 106.663,204.751 102.476 L 200.002 102.248 199.918 160.860 " stroke="none" fill="#040404" fill-rule="evenodd"></path><path id="path1" d="" stroke="none" fill="#080404" fill-rule="evenodd"></path><path id="path2" d="" stroke="none" fill="#080404" fill-rule="evenodd"></path><path id="path3" d="" stroke="none" fill="#080404" fill-rule="evenodd"></path><path id="path4" d="" stroke="none" fill="#080404" fill-rule="evenodd"></path><path id="path5" d="" stroke="none" fill="#080404" fill-rule="evenodd"></path><path id="path6" d="" stroke="none" fill="#080404" fill-rule="evenodd"></path><path id="path7" d="" stroke="none" fill="#080404" fill-rule="evenodd"></path><path id="path8" d="" stroke="none" fill="#080404" fill-rule="evenodd"></path></g></svg>